<svg width="33" height="77" viewBox="0 0 33 77" fill="none" xmlns="http://www.w3.org/2000/svg">
<path d="M6.69891 28.2587C6.69891 28.2587 8.34273 49.1478 8.44456 52.1393C8.53912 55.0508 10.1175 57.2871 11.5358 59.0224C12.9251 60.7287 13.9943 62.101 13.9943 62.101H18.3366C18.3366 62.101 23.5444 56.6482 23.7917 53.9109C24.0463 51.101 25.3773 28.8105 25.3773 28.8105L6.69891 28.2587Z" fill="#C8C8C8"/>
<path d="M33 18.5657L31.9453 30.8L0 29.6673L2.31298 17.7743L3.97862 17.4185L27.8067 17.1498L33 18.5657Z" fill="#1FC97F"/>
<path d="M16.0163 0C10.3648 0 5.78247 4.57426 5.78247 10.2158L5.89885 23.9459H26.192L26.2502 10.2158C26.2502 4.57426 21.6679 0 16.0163 0Z" fill="#1FC97F"/>
<g opacity="0.5">
<g opacity="0.5">
<g opacity="0.5">
<path d="M19.9804 51.6746C19.9804 53.8601 18.2057 55.6317 16.0163 55.6317C13.827 55.6317 12.0522 53.8601 12.0522 51.6746C12.0522 49.4891 13.827 47.7175 16.0163 47.7175C18.2057 47.7175 19.9804 49.4891 19.9804 51.6746Z" fill="black"/>
</g>
</g>
</g>
<path d="M19.9804 41.8073C19.9804 43.9927 18.2057 45.7643 16.0163 45.7643C13.827 45.7643 12.0522 43.9927 12.0522 41.8073C12.0522 39.6218 13.827 37.8502 16.0163 37.8502C18.2057 37.8502 19.9804 39.6218 19.9804 41.8073Z" fill="#A6A6A6"/>
<path d="M21.806 71.235C21.806 74.4224 19.2167 77 16.0309 77C12.8378 77 10.2557 74.4224 10.2557 71.235C10.2557 68.0548 12.8378 65.47 16.0309 65.47C19.2239 65.47 21.806 68.0548 21.806 71.235Z" fill="#7820A0"/>
</svg>
