<svg width="40" height="40" viewBox="0 0 40 40" fill="none" xmlns="http://www.w3.org/2000/svg">
<path d="M20 4.16663C15.8008 4.16663 11.7735 5.83478 8.80416 8.8041C5.83484 11.7734 4.16669 15.8007 4.16669 20C4.16669 24.1992 5.83484 28.2265 8.80416 31.1958C11.7735 34.1651 15.8008 35.8333 20 35.8333C24.1993 35.8333 28.2266 34.1651 31.1959 31.1958C34.1652 28.2265 35.8334 24.1992 35.8334 20C35.8334 15.8007 34.1652 11.7734 31.1959 8.8041C28.2266 5.83478 24.1993 4.16663 20 4.16663Z" fill="#039BE5"/>
<path d="M22.1433 24.1966H26.2408L26.8842 20.0341H22.1425V17.7591C22.1425 16.03 22.7075 14.4966 24.325 14.4966H26.9242V10.8641C26.4675 10.8025 25.5017 10.6675 23.6767 10.6675C19.8658 10.6675 17.6317 12.68 17.6317 17.265V20.0341H13.7142V24.1966H17.6317V35.6375C18.4075 35.7541 19.1933 35.8333 20 35.8333C20.7292 35.8333 21.4408 35.7666 22.1433 35.6716V24.1966Z" fill="white"/>
</svg>
