<svg width="103" height="62" viewBox="0 0 103 62" fill="none" xmlns="http://www.w3.org/2000/svg">
<g clip-path="url(#clip0)">
<path d="M72.5916 24.4281C72.3929 24.4217 72.1942 24.4473 71.9955 24.4473V24.4153L51.7404 24.0306L51.0353 60.9805L71.2904 61.3652V61.3332C71.4891 61.346 71.6814 61.3716 71.8866 61.3716C82.0846 61.564 90.5136 53.4533 90.7059 43.2525C90.8982 33.0517 82.7961 24.6204 72.5916 24.4281Z" fill="#F9EDFF"/>
<path d="M52.7147 22.5624C52.7595 22.7098 52.9839 62 52.9839 62C52.9839 62 34.2543 61.7692 31.0942 61.0832C27.9342 60.3971 22.1781 59.8457 19.268 57.1144C16.358 54.3895 13.1466 49.4654 12.6402 48.0997C12.1339 46.7276 12.089 40.4635 12.089 40.4635C12.089 40.4635 12.3133 34.8341 15.3965 30.9551C18.4796 27.0761 23.6844 24.1268 27.6778 23.569C31.6711 23.0048 35.3119 23.1651 35.3119 23.1651L52.7147 22.5624Z" fill="#F9EDFF"/>
<path d="M67.6881 42.2844C67.6881 50.7669 60.8167 57.6401 52.3365 57.6401C43.8562 57.6401 36.9849 50.7669 36.9849 42.2844C36.9913 33.8019 43.8627 26.9286 52.3429 26.9286C60.8167 26.9286 67.6881 33.8019 67.6881 42.2844Z" fill="#1FC97F"/>
<path d="M60.4129 42.2844C60.4129 46.7469 56.7977 50.3566 52.3429 50.3566C47.8816 50.3566 44.2729 46.7405 44.2729 42.2844C44.2729 37.8219 47.888 34.2122 52.3429 34.2122C56.7977 34.2122 60.4129 37.8219 60.4129 42.2844Z" fill="#461487"/>
<path d="M54.8684 14.8236L50.4456 14.4838L48.356 0L56.2144 0.0833506L54.8684 14.8236Z" fill="#EBB914"/>
<path d="M31.6519 15.9905L34.7607 14.7018L32.6069 0.820679L25.7933 2.96215L31.6519 15.9905Z" fill="#EBB914"/>
<path d="M96.0902 28.897L94.6095 26.3516L100.455 21.0236L103 25.3963L96.0902 28.897Z" fill="#EBB914"/>
<path d="M6.90983 27.993L8.3905 25.4476L2.54471 20.1196L0 24.4923L6.90983 27.993Z" fill="#EBB914"/>
<path d="M17.9348 19.2989L19.8577 17.6254L15.4798 9.35449L10.8711 12.7655L17.9348 19.2989Z" fill="#EBB914"/>
<path d="M86.5651 20.7992L84.6422 19.1322L89.0137 10.8548L93.6288 14.2722L86.5651 20.7992Z" fill="#EBB914"/>
<path d="M71.1174 15.8302L67.8099 14.2465L70.7392 0.987366L78.0272 3.78282L71.1174 15.8302Z" fill="#EBB914"/>
</g>
<defs>
<clipPath id="clip0">
<rect width="103" height="62" fill="white"/>
</clipPath>
</defs>
</svg>
