<svg width="40" height="40" viewBox="0 0 40 40" fill="none" xmlns="http://www.w3.org/2000/svg">
<circle cx="20" cy="20" r="20" fill="#BAB6BC"/>
<path d="M20 12.5C15.8653 12.5 12.5 15.8653 12.5 20C12.5 24.1347 15.8653 27.5 20 27.5C24.1347 27.5 27.5 24.1347 27.5 20C27.5 15.8653 24.1347 12.5 20 12.5ZM20 13.75C23.4592 13.75 26.25 16.5408 26.25 20C26.25 23.1421 23.9448 25.7258 20.9302 26.1743V21.8225H22.71L22.9895 20.0146H20.9302V19.0271C20.9302 18.2765 21.1768 17.6099 21.8787 17.6099H23.0066V16.0327C22.8085 16.0058 22.3892 15.9473 21.5967 15.9473C19.9417 15.9473 18.9722 16.821 18.9722 18.8123V20.0146H17.2705V21.8225H18.9722V26.1584C16.0055 25.6692 13.75 23.1082 13.75 20C13.75 16.5408 16.5408 13.75 20 13.75Z" fill="#463D4A"/>
</svg>
