<svg width="40" height="40" viewBox="0 0 40 40" fill="none" xmlns="http://www.w3.org/2000/svg">
<circle cx="20" cy="20" r="20" fill="#BAB6BC"/>
<path d="M27.5 15.3491C26.9482 15.5933 26.355 15.7593 25.7324 15.8325C26.3672 15.4517 26.8555 14.8486 27.085 14.1309C26.4917 14.4824 25.8325 14.7388 25.1318 14.8779C24.5703 14.2798 23.7695 13.9038 22.8857 13.9038C21.1865 13.9038 19.8071 15.2832 19.8071 16.9824C19.8071 17.2241 19.834 17.4585 19.8877 17.6831C17.3291 17.5562 15.061 16.3306 13.5449 14.4678C13.2788 14.9219 13.1274 15.4517 13.1274 16.0156C13.1274 17.0825 13.6694 18.0249 14.4971 18.5767C13.9917 18.5596 13.5181 18.4229 13.103 18.1909C13.103 18.2056 13.103 18.2178 13.103 18.23C13.103 19.7217 14.1626 20.9668 15.5713 21.2476C15.3125 21.3184 15.0415 21.3574 14.7607 21.3574C14.563 21.3574 14.3677 21.3379 14.1821 21.3013C14.5728 22.5244 15.7104 23.4131 17.0557 23.4399C16.0034 24.2651 14.6753 24.7559 13.2349 24.7559C12.9858 24.7559 12.7417 24.7412 12.5 24.7119C13.8623 25.5859 15.4785 26.0962 17.2168 26.0962C22.8784 26.0962 25.9741 21.4062 25.9741 17.3389C25.9741 17.207 25.9692 17.0728 25.9644 16.9409C26.5649 16.5063 27.0874 15.9644 27.5 15.3491Z" fill="#463D4A"/>
</svg>
