<svg width="122" height="126" viewBox="0 0 122 126" fill="none" xmlns="http://www.w3.org/2000/svg">
<circle cx="61" cy="65" r="61" fill="white"/>
<g clip-path="url(#clip0)">
<path d="M61.46 88.48C76.6478 88.48 88.96 76.1678 88.96 60.98C88.96 45.7921 76.6478 33.48 61.46 33.48C46.2722 33.48 33.96 45.7921 33.96 60.98C33.96 76.1678 46.2722 88.48 61.46 88.48Z" fill="#BEBEBE"/>
<path d="M79.9799 71.9258L69.5443 81.2596L90.8787 105.112L101.314 95.7786L79.9799 71.9258Z" fill="#BEBEBE"/>
<path d="M62.21 76.8101C71.3227 76.8101 78.71 69.4228 78.71 60.3101C78.71 51.1974 71.3227 43.8101 62.21 43.8101C53.0973 43.8101 45.71 51.1974 45.71 60.3101C45.71 69.4228 53.0973 76.8101 62.21 76.8101Z" fill="#FFFAF5"/>
<path d="M65.33 20.01L57.93 19.63L54.73 0L67.43 0.64L65.33 20.01Z" fill="#EBB914"/>
<path d="M93.12 29.49L87.86 24.26L98.6 7.52002L107.62 16.48L93.12 29.49Z" fill="#EBB914"/>
<path d="M29.16 29.61L34.55 24.53L24.26 7.51001L15 16.23L29.16 29.61Z" fill="#EBB914"/>
</g>
<defs>
<clipPath id="clip0">
<rect width="92.62" height="105.11" fill="white" transform="translate(15)"/>
</clipPath>
</defs>
</svg>
