<svg width="122" height="122" viewBox="0 0 122 122" fill="none" xmlns="http://www.w3.org/2000/svg">
<circle cx="61" cy="61" r="61" fill="white"/>
<mask id="mask0" mask-type="alpha" maskUnits="userSpaceOnUse" x="0" y="0" width="122" height="122">
<circle cx="61" cy="61" r="61" fill="white"/>
</mask>
<g mask="url(#mask0)">
<path d="M16.6569 66C16.6569 66 17.6043 85.9785 16.85 97.0165C16.4177 103.358 15.3323 118.935 16.5833 121.711C17.6687 124.124 18.4046 126.133 31.9262 125.837C45.4478 125.542 97.5566 126.546 102.183 125.542C106.424 124.616 109.045 125.168 108.999 108.438C108.953 91.7092 108.374 86.8352 108.374 86.8352L108.733 66H16.6569Z" fill="#E8E4EA"/>
<path d="M20.9339 46.774H104.792L108.581 48.7325L108.959 66.8413H16.1969L16.7672 48.9784L20.9339 46.774Z" fill="#FF595E"/>
<path d="M47.8012 37L46.4951 53.4054L39.4678 53.7697L38.6032 37.4828L47.8012 37Z" fill="#C8C8C8"/>
<path d="M85.5129 37L84.2068 53.4054L77.1796 53.7697L76.315 37.4828L85.5129 37Z" fill="#C8C8C8"/>
<path d="M37.2143 86.4348H26.1768V75.5039L37.2143 74.593V86.4348Z" fill="#BAB6BC"/>
<path d="M41.3534 85.9793V75.0485H52.391L53.3108 85.9793H41.3534Z" fill="#BAB6BC"/>
<path d="M57.4499 86.4348V75.5039H68.4875L69.4073 86.4348H57.4499Z" fill="#BAB6BC"/>
<path d="M74.0062 75.5039H85.0438V86.4348L74.0062 87.3457V75.5039Z" fill="#BAB6BC"/>
<path d="M101.6 75.5039V86.4348H90.5626L89.6428 75.5039H101.6Z" fill="#BAB6BC"/>
<path d="M37.2143 102.831H26.1768V91.9002L37.2143 90.9893V102.831Z" fill="#BAB6BC"/>
<path d="M41.3534 102.376V91.4447H52.391L53.3108 102.376H41.3534Z" fill="#BAB6BC"/>
<path d="M57.4499 102.831V91.9001H68.4875L69.4073 102.831H57.4499Z" fill="#BAB6BC"/>
<path d="M74.0062 91.9001H85.0438V102.831L74.0062 103.742V91.9001Z" fill="#BAB6BC"/>
</g>
</svg>
