<svg width="122" height="122" viewBox="0 0 122 122" fill="none" xmlns="http://www.w3.org/2000/svg">
<mask id="mask0" mask-type="alpha" maskUnits="userSpaceOnUse" x="0" y="0" width="122" height="122">
<circle cx="61" cy="61" r="61" fill="#E8E4EA"/>
</mask>
<g mask="url(#mask0)">
<circle cx="61" cy="61" r="61" fill="white"/>
<path d="M22.3229 41H97.8865C102.32 41 105.918 44.5977 105.918 49.0314C105.918 49.0314 107.463 73.9997 107.463 89.7965C107.463 105.593 105.918 115.677 105.918 115.677C105.918 121.694 101.003 126.546 94.9982 126.47L25.6292 125.646C20.258 125.583 15.9383 121.213 15.9383 115.842C15.9383 115.842 13.9368 105.365 14.1901 83.7286C14.4435 62.0919 15.951 47.3719 15.951 47.3719C15.951 43.8503 18.8012 41 22.3229 41Z" fill="#E8E4EA"/>
<path d="M37.8412 41H84.0155V113.169H37.8412V41Z" fill="#7820A0"/>
<path d="M72.1838 66.7031H49.6857C47.0255 66.7031 44.8593 64.5495 44.8593 61.8766C44.8593 59.2037 47.0128 57.0502 49.6857 57.0502H72.1838C74.844 57.0502 77.0102 59.2037 77.0102 61.8766C77.0102 64.5495 74.844 66.7031 72.1838 66.7031Z" fill="#461487"/>
<path d="M53.9797 102.274L47.5698 87.0856H52.3835L55.9305 96.5104L59.4395 87.0856H64.2786L57.8434 102.274H53.9797Z" fill="white"/>
<path d="M67.8895 102.604C66.3313 102.604 65.0899 101.438 65.0899 99.8674C65.0899 98.3093 66.3313 97.1692 67.8895 97.1692C69.4476 97.1692 70.7144 98.3346 70.7144 99.8674C70.7144 101.438 69.4476 102.604 67.8895 102.604Z" fill="white"/>
<path d="M100.687 79.8902C102.815 82.0184 102.815 85.4641 100.687 87.5796C98.5585 89.7078 95.1128 89.7078 92.9973 87.5796C90.8691 85.4514 90.8691 82.0057 92.9973 79.8902C95.1255 77.762 98.5711 77.762 100.687 79.8902Z" fill="#847D88"/>
<path d="M23.6654 68.9833L46.3535 71.7449V79.2949H23.6654V68.9833Z" fill="#1FC97F"/>
</g>
</svg>
