<svg width="180" height="553" viewBox="0 0 180 553" fill="none" xmlns="http://www.w3.org/2000/svg">
<g clip-path="url(#clip0)">
<path d="M127.797 122.246C127.797 122.246 91.779 276.137 73.7101 328.071C63.3349 357.908 37.7277 431.171 40.5837 446.219C43.0576 459.291 44.255 469.944 114.1 487.139C183.944 504.334 261.332 530.237 286.393 531.785C309.367 533.181 322.126 539.436 343.402 459.086C364.679 378.737 393.293 260.038 393.293 260.038L411.799 198.345L127.797 122.246Z" fill="#1FC97F"/>
<path d="M333.655 362.017L115.904 303.67L141.595 197.205L364.001 255.38L333.655 362.017Z" fill="#FFFAF5"/>
<path d="M140.76 4.87483L462.094 90.9758L473.879 105.023L442.574 227.711L87.0759 132.455L121.677 12.0181L140.76 4.87483Z" fill="#C8C8C8"/>
<g opacity="0.5">
<g opacity="0.5">
<g opacity="0.5">
<path d="M162.45 145.46L120.124 135.385L154.134 8.45813L196.143 19.7146L162.45 145.46Z" fill="black"/>
</g>
</g>
</g>
<path d="M260.769 400.023C255.211 420.768 233.893 433.036 213.195 427.49C192.45 421.931 180.17 400.661 185.728 379.916C191.274 359.218 212.558 346.89 233.302 352.449C254.047 358.007 266.315 379.325 260.769 400.023Z" fill="#FFFAF5"/>
<path d="M149.629 425.803C144.07 446.548 122.752 458.816 102.055 453.27C81.3099 447.711 69.0293 426.441 74.5879 405.696C80.1338 384.998 101.417 372.671 122.162 378.229C142.907 383.788 155.175 405.105 149.629 425.803Z" fill="#7820A0"/>
</g>
<defs>
<clipPath id="clip0">
<rect width="368.039" height="473.564" fill="white" transform="translate(122.567) rotate(15)"/>
</clipPath>
</defs>
</svg>
